<?xml version='1.0' encoding='UTF-8' standalone='no'?>
<svg height="432pt" xmlns="http://www.w3.org/2000/svg" viewBox="0 0 576 432" xmlns:xlink="http://www.w3.org/1999/xlink" width="576pt">
 <title>gl2ps_renderer figure</title>
 <desc>
Creator: GL2PS 1.4.0, (C) 1999-2017 C. Geuzaine
For: Octave
CreationDate: Mon Oct 24 10:38:59 2022
</desc>
 <defs/>
 <polygon fill="#ffffff" points="0,0 576,0 576,432 0,432"/>
 <g>
  <polygon shape-rendering="crispEdges" fill="#ffffff" points="0,432 576,432 576,0 0,0"/>
  <clipPath id="cp00576432">
   <polygon points="0,432 576,432 576,0 0,0"/>
  </clipPath>
  <g clip-path="url(#cp00576432)">
   <polygon shape-rendering="crispEdges" fill="#ffffff" points="74.88,384.48 521.28,384.48 521.28,32.4 74.88,32.4"/>
   <polyline stroke-linejoin="miter" stroke="#262626" stroke-linecap="butt" fill="none" stroke-width="0.5" points="74.88,384.48 74.88,380.015"/>
   <polyline stroke-linejoin="miter" stroke="#262626" stroke-linecap="butt" fill="none" stroke-width="0.5" points="74.88,32.4 74.88,36.865"/>
   <polyline stroke-linejoin="miter" stroke="#262626" stroke-linecap="butt" fill="none" stroke-width="0.5" points="145.927,384.48 145.927,380.015"/>
   <polyline stroke-linejoin="miter" stroke="#262626" stroke-linecap="butt" fill="none" stroke-width="0.5" points="145.927,32.4 145.927,36.865"/>
   <polyline stroke-linejoin="miter" stroke="#262626" stroke-linecap="butt" fill="none" stroke-width="0.5" points="216.974,384.48 216.974,380.015"/>
   <polyline stroke-linejoin="miter" stroke="#262626" stroke-linecap="butt" fill="none" stroke-width="0.5" points="216.974,32.4 216.974,36.865"/>
   <polyline stroke-linejoin="miter" stroke="#262626" stroke-linecap="butt" fill="none" stroke-width="0.5" points="288.02,384.48 288.02,380.015"/>
   <polyline stroke-linejoin="miter" stroke="#262626" stroke-linecap="butt" fill="none" stroke-width="0.5" points="288.02,32.4 288.02,36.865"/>
   <polyline stroke-linejoin="miter" stroke="#262626" stroke-linecap="butt" fill="none" stroke-width="0.5" points="359.067,384.48 359.067,380.015"/>
   <polyline stroke-linejoin="miter" stroke="#262626" stroke-linecap="butt" fill="none" stroke-width="0.5" points="359.067,32.4 359.067,36.865"/>
   <polyline stroke-linejoin="miter" stroke="#262626" stroke-linecap="butt" fill="none" stroke-width="0.5" points="430.114,384.48 430.114,380.015"/>
   <polyline stroke-linejoin="miter" stroke="#262626" stroke-linecap="butt" fill="none" stroke-width="0.5" points="430.114,32.4 430.114,36.865"/>
   <polyline stroke-linejoin="miter" stroke="#262626" stroke-linecap="butt" fill="none" stroke-width="0.5" points="501.161,384.48 501.161,380.015"/>
   <polyline stroke-linejoin="miter" stroke="#262626" stroke-linecap="butt" fill="none" stroke-width="0.5" points="501.161,32.4 501.161,36.865"/>
   <text font-size="10" font-style="normal" transform="translate(71.88,399.982) rotate(-0,3,-8)" font-weight="normal" font-family="FreeSans" xml:space="preserve">
    <tspan fill="rgb(38,38,38)" x="0 " y="-0">0</tspan>
   </text>
   <text font-size="10" font-style="normal" transform="translate(138.427,399.982) rotate(-0,7.5,-8)" font-weight="normal" font-family="FreeSans" xml:space="preserve">
    <tspan fill="rgb(38,38,38)" x="0 6 9 " y="-0">0.5</tspan>
   </text>
   <text font-size="10" font-style="normal" transform="translate(213.974,399.982) rotate(-0,3,-8)" font-weight="normal" font-family="FreeSans" xml:space="preserve">
    <tspan fill="rgb(38,38,38)" x="0 " y="-0">1</tspan>
   </text>
   <text font-size="10" font-style="normal" transform="translate(280.52,399.982) rotate(-0,7.5,-8)" font-weight="normal" font-family="FreeSans" xml:space="preserve">
    <tspan fill="rgb(38,38,38)" x="0 6 9 " y="-0">1.5</tspan>
   </text>
   <text font-size="10" font-style="normal" transform="translate(356.067,399.982) rotate(-0,3,-8)" font-weight="normal" font-family="FreeSans" xml:space="preserve">
    <tspan fill="rgb(38,38,38)" x="0 " y="-0">2</tspan>
   </text>
   <text font-size="10" font-style="normal" transform="translate(422.614,399.982) rotate(-0,7.5,-8)" font-weight="normal" font-family="FreeSans" xml:space="preserve">
    <tspan fill="rgb(38,38,38)" x="0 6 9 " y="-0">2.5</tspan>
   </text>
   <text font-size="10" font-style="normal" transform="translate(498.161,399.982) rotate(-0,3,-8)" font-weight="normal" font-family="FreeSans" xml:space="preserve">
    <tspan fill="rgb(38,38,38)" x="0 " y="-0">3</tspan>
   </text>
   <polyline stroke-linejoin="miter" stroke="#262626" stroke-linecap="butt" fill="none" stroke-width="0.5" points="74.88,384.48 79.348,384.48"/>
   <polyline stroke-linejoin="miter" stroke="#262626" stroke-linecap="butt" fill="none" stroke-width="0.5" points="521.28,384.48 516.812,384.48"/>
   <polyline stroke-linejoin="miter" stroke="#262626" stroke-linecap="butt" fill="none" stroke-width="0.5" points="74.88,296.46 79.348,296.46"/>
   <polyline stroke-linejoin="miter" stroke="#262626" stroke-linecap="butt" fill="none" stroke-width="0.5" points="521.28,296.46 516.812,296.46"/>
   <polyline stroke-linejoin="miter" stroke="#262626" stroke-linecap="butt" fill="none" stroke-width="0.5" points="74.88,208.44 79.348,208.44"/>
   <polyline stroke-linejoin="miter" stroke="#262626" stroke-linecap="butt" fill="none" stroke-width="0.5" points="521.28,208.44 516.812,208.44"/>
   <polyline stroke-linejoin="miter" stroke="#262626" stroke-linecap="butt" fill="none" stroke-width="0.5" points="74.88,120.42 79.348,120.42"/>
   <polyline stroke-linejoin="miter" stroke="#262626" stroke-linecap="butt" fill="none" stroke-width="0.5" points="521.28,120.42 516.812,120.42"/>
   <polyline stroke-linejoin="miter" stroke="#262626" stroke-linecap="butt" fill="none" stroke-width="0.5" points="74.88,32.4 79.348,32.4"/>
   <polyline stroke-linejoin="miter" stroke="#262626" stroke-linecap="butt" fill="none" stroke-width="0.5" points="521.28,32.4 516.812,32.4"/>
   <text font-size="10" font-style="normal" transform="translate(60.8755,388.48) rotate(-0,9,-4)" font-weight="normal" font-family="FreeSans" xml:space="preserve">
    <tspan fill="rgb(38,38,38)" x="0 3 " y="-0">-1</tspan>
   </text>
   <text font-size="10" font-style="normal" transform="translate(51.8755,300.46) rotate(-0,18,-4)" font-weight="normal" font-family="FreeSans" xml:space="preserve">
    <tspan fill="rgb(38,38,38)" x="0 3 9 12 " y="-0">-0.5</tspan>
   </text>
   <text font-size="10" font-style="normal" transform="translate(63.8755,212.44) rotate(-0,6,-4)" font-weight="normal" font-family="FreeSans" xml:space="preserve">
    <tspan fill="rgb(38,38,38)" x="0 " y="-0">0</tspan>
   </text>
   <text font-size="10" font-style="normal" transform="translate(54.8755,124.42) rotate(-0,15,-4)" font-weight="normal" font-family="FreeSans" xml:space="preserve">
    <tspan fill="rgb(38,38,38)" x="0 6 9 " y="-0">0.5</tspan>
   </text>
   <text font-size="10" font-style="normal" transform="translate(63.8755,36.4) rotate(-0,6,-4)" font-weight="normal" font-family="FreeSans" xml:space="preserve">
    <tspan fill="rgb(38,38,38)" x="0 " y="-0">1</tspan>
   </text>
   <polyline stroke-linejoin="miter" stroke="#262626" stroke-linecap="square" fill="none" stroke-dasharray="16,0" stroke-width="0.5" points="74.88,384.48 521.28,384.48"/>
   <polyline stroke-linejoin="miter" stroke="#262626" stroke-linecap="square" fill="none" stroke-dasharray="16,0" stroke-width="0.5" points="74.88,32.4 521.28,32.4"/>
   <polyline stroke-linejoin="miter" stroke="#262626" stroke-linecap="square" fill="none" stroke-dasharray="16,0" stroke-width="0.5" points="74.88,384.48 74.88,32.4"/>
   <polyline stroke-linejoin="miter" stroke="#262626" stroke-linecap="square" fill="none" stroke-dasharray="16,0" stroke-width="0.5" points="521.28,384.48 521.28,32.4"/>
   <text font-size="11" font-style="normal" transform="translate(288.58,416.982) rotate(-0,9.5,-12)" font-weight="normal" font-family="FreeSans" xml:space="preserve">
    <tspan fill="rgb(38,38,38)" x="0 3 6 10 15 " y="-3">t (s)</tspan>
   </text>
   <text font-size="11" font-style="normal" transform="translate(32.3755,208.44) rotate(-90,14.5,0)" font-weight="normal" font-family="FreeSans" xml:space="preserve">
    <tspan fill="rgb(38,38,38)" x="0 5 11 14 18 25 " y="-3">ve (V)</tspan>
   </text>
   <text font-size="11" font-style="normal" transform="translate(266.58,22.4) rotate(-0,31.5,0)" font-weight="bold" font-family="FreeSans" xml:space="preserve">
    <tspan fill="rgb(0,0,0)" x="0 6 13 20 24 30 36 39 45 51 55 59 " y="-3">source ve(t)</tspan>
   </text>
   <polyline stroke-linejoin="round" stroke="#ff0000" stroke-linecap="butt" fill="none" stroke-width="0.5" points="74.88,208.44 79.3439,173.918 83.8077,140.737 88.2717,110.185 92.7356,83.4481 97.1995,61.5652 101.663,45.3861 106.127,35.539 110.591,32.406 115.055,36.109 119.519,46.5042 123.983,63.1878 128.447,85.5122 132.911,112.61 137.375,143.43 141.838,176.773 146.302,211.347 150.766,245.808 155.23,278.817 159.694,309.094 164.158,335.462 168.622,356.897 173.086,372.567 177.55,381.864 182.014,384.426 186.477,380.154 190.941,369.214 195.405,352.03 199.869,329.27 204.333,301.818 208.797,270.74 213.261,237.243 217.725,202.627 222.188,168.237 226.652,135.408 231.116,105.415 235.58,79.4228 240.044,58.4409 244.508,43.2838 248.972,34.5405 253.436,32.55 257.9,37.39 262.364,48.8724 266.827,66.5512 271.291,89.7403 275.755,117.539 280.219,148.867 284.683,182.509 289.147,217.158 293.611,251.468 298.075,284.107 302.539,313.808 307.003,339.417 311.466,359.94 315.93,374.58 320.394,382.768 324.858,384.186 329.322,378.779 333.786,366.758 338.25,348.589 342.714,324.977 347.178,296.84 351.642,265.269 356.105,231.492 360.569,196.82 365.033,162.599 369.497,130.158 373.961,100.757 378.425,75.5381 382.889,55.4799 387.353,41.3615 391.817,33.7316 396.28,32.8859 400.744,38.8575 405.208,51.4146 409.672,70.0696 414.136,94.098 418.6,122.566 423.064,154.37 427.528,188.273 431.992,222.959 436.456,257.081 440.919,289.315 445.383,318.408 449.847,343.23 454.311,362.818 458.775,376.411 463.239,383.482 467.703,383.754 472.167,377.219 476.631,364.13 481.095,344.994 485.558,320.556 490.022,291.764 494.486,259.737 498.95,225.717 503.414,191.026 507.878,157.012 512.342,124.994 516.806,96.2173 521.27,71.7985"/>
  </g>
  <clipPath id="cp00576432">
   <polygon points="0,432 576,432 576,0 0,0"/>
  </clipPath>
  <g clip-path="url(#cp00576432)">
   <polygon shape-rendering="crispEdges" fill="#ffffff" points="470.826,55.0502 510.294,55.0502 510.294,43.3859 470.826,43.3859"/>
   <polyline stroke-linejoin="miter" stroke="#262626" stroke-linecap="square" fill="none" stroke-dasharray="16,0" stroke-width="0.5" points="470.826,55.0502 510.294,55.0502"/>
   <polyline stroke-linejoin="miter" stroke="#262626" stroke-linecap="square" fill="none" stroke-dasharray="16,0" stroke-width="0.5" points="470.826,43.3859 510.294,43.3859"/>
   <polyline stroke-linejoin="miter" stroke="#262626" stroke-linecap="square" fill="none" stroke-dasharray="16,0" stroke-width="0.5" points="470.826,55.0502 470.826,43.3859"/>
   <polyline stroke-linejoin="miter" stroke="#262626" stroke-linecap="square" fill="none" stroke-dasharray="16,0" stroke-width="0.5" points="510.294,55.0502 510.294,43.3859"/>
   <text font-size="9" font-style="normal" transform="translate(497.833,52.218) rotate(-0,-0,-3)" font-weight="normal" font-family="FreeSans" xml:space="preserve">
    <tspan fill="rgb(0,0,0)" x="0 4 " y="-0">ve</tspan>
   </text>
   <polyline stroke-linejoin="round" stroke="#ff0000" stroke-linecap="butt" fill="none" stroke-width="0.5" points="474.03,49.218 494.629,49.218"/>
  </g>
 </g>
</svg>
